# xmcd
#
# Track frame offsets:
#	150
#	20116
#	38102
#	54495
#
# Disc length: 932 seconds
#
# Revision: 5
# Processed by: cddbd v1.5.2PL0 Copyright (c) Steve Scherf et al.
# Submitted via: audiograbber 1.83.01
#
DISCID=2e03a204
DTITLE=No Angels - Pure
DYEAR=2003
DGENRE=Misc
TTITLE0=Nadja Benaissa - Soft Place To Fall
TTITLE1=Ludmila Diakovska - Confession
TTITLE2=Sandy Mölling - How Can We Be Friends?
TTITLE3=Vanessa Petruo - Ten Degrees
EXTD=
EXTT0=
EXTT1=
EXTT2=
EXTT3=
PLAYORDER=
